<?xml version="1.0" encoding="UTF-8" standalone="no"?>
<svg xmlns:rdf="http://www.w3.org/1999/02/22-rdf-syntax-ns#" xmlns="http://www.w3.org/2000/svg" xml:space="preserve" height="102.03" viewBox="0 0 118.2666 102.03398" width="118.27" version="1.1" xmlns:cc="http://creativecommons.org/ns#" xmlns:dc="http://purl.org/dc/elements/1.1/"><g transform="matrix(1.25 0 0 -1.25 -152.77 742.59)"><g transform="matrix(.5 0 0 .5 85.102 276.97)"><path d="m235.98 580.43v6.386c-18.245 8.871-41.629 14.202-67.129 14.202-25.001 0-47.971-5.122-66.056-13.682v-6.892c-5.266 0.063-14.36-1.663-20.454-12.888 0 0 9.169 3.194 17.906 0.018 8.206-2.982 21.06-2.628 27.643 4.551h-16.059c10.724 4.273 22.903 7.371 36.011 8.984-2.151-1.713-4.943-4.109-7.491-6.514-13.755-12.977-28.258-10.981-28.258-10.981s-1.071-13.073 12.863-22.056c-7.83-1.052-13.391-6.561-14.006-15.293-0.509-7.22 2.597-14.271 7.772-20.731-0.109 0.49-0.17 0.996-0.17 1.521 0.004 5.586 5.636 8.652 12.577 6.849 6.942-1.803 10.96-6.797 10.954-11.67-0.001-3.518-2.565-5.888-6.272-6.343 3.473-3.116 8.493-5.078 14.083-5.078 0.694 0 1.379 0.033 2.055 0.092 3.077-8.123 9.165-14.75 16.888-18.473 7.726 3.723 13.811 10.35 16.889 18.473 0.677-0.059 1.363-0.092 2.057-0.092 5.592 0 10.609 1.962 14.081 5.078-3.705 0.455-6.27 2.825-6.272 6.343-0.003 4.873 4.013 9.867 10.955 11.67 6.944 1.803 12.571-1.263 12.577-6.849 0.003-0.525-0.061-1.031-0.172-1.521 5.175 6.46 8.283 13.511 7.776 20.731-0.603 8.608-6.022 14.08-13.676 15.241 14.043 9.013 12.97 22.198 12.97 22.198s-14.504-2.086-28.259 10.891c-2.485 2.345-5.238 4.701-7.39 6.422 12.828-1.637 24.753-4.699 35.277-8.892h-15.842c6.586-7.179 19.438-7.533 27.646-4.551 8.735 3.176 17.906-0.018 17.906-0.018-5.699 10.495-14.016 12.685-19.38 12.874" fill="#a4a9ac"/><path d="m203.92 538.32c-0.986-0.077-1.932-0.175-2.855-0.291 21.001 9.137 22.166 22.939 22.166 22.939s-0.508-0.059-0.486 0c0 0-13.972-0.799-26.154 10.678-4.83 4.549-8.517 7.723-11.877 9.899-4.026 2.934-9.554 4.748-15.657 4.748-3.518 0-6.844-0.605-9.806-1.68-5.39-1.71-10.255-5.472-18.214-12.967-12.181-11.477-26.151-10.769-26.151-10.769 0.148-1.787 1.388-14.034 22.484-22.956-1.157 0.16-2.349 0.301-3.611 0.399-14.44 1.12-22.531-7.854-18.069-20.041 0.69-1.891 1.646-3.747 2.815-5.539 0.877 3.594 4.557 5.82 9.9 5.406 7.567-0.586 15.233-6.211 17.307-12.575 1.51-4.634-0.086-8.405-3.668-9.909h0.004-0.004c1.91-0.918 3.988-1.503 6.168-1.671 2.312-0.178 4.52 0.136 6.544 0.843 2.071-8.08 7.244-14.256 14.084-18.243 6.838 3.987 12.015 10.163 14.086 18.243 2.023-0.707 4.23-1.021 6.542-0.843 2.177 0.168 4.257 0.753 6.166 1.671h-0.001 0.001c-3.581 1.504-5.178 5.275-3.664 9.909 2.075 6.364 9.738 11.989 17.304 12.575 5.341 0.414 9.021-1.812 9.902-5.406 1.17 1.792 2.122 3.648 2.814 5.539 4.459 12.187-3.631 21.161-18.07 20.041" fill="#002f56"/><path d="m116.44 64.482v19.17h0.10157 6.7188c1.0838-1.3238 2.6902-2.166 4.4902-2.166 1.0525 0 2.0395 0.28992 2.8945 0.79492-0.5725-3.3962-3.4396-5.8164-6.0996-5.8164-1.4325 0-3.1862 0.69688-4.375 1.8594 0.09-0.76875 0.13086-1.5618 0.13086-2.373 0-4.77-1.5326-8.9712-3.8613-11.469zm0.002 21.17v3.1172h8.5801c1.0438 0 1.8887-0.69914 1.8887-1.5566 0-0.86375-0.84493-1.5605-1.8887-1.5605h-8.5801zm0 5.1191v8.6309c1.4725-1.4262 2.6526-3.4123 3.3926-5.7461 0.81375 0.5425 1.7615 0.84961 2.8027 0.84961 1.1238 0 2.2338-0.36203 3.25-0.98828-1.3738-0.47625-2.5208-1.4648-3.2383-2.7461h-6.1074-0.0996zm-15.51 23.5c-0.0375 0.185-0.0625 0.38063-0.0625 0.57813 0 1.655 1.574 2.9941 3.5215 2.9941 1.45 0 2.6994-0.74555 3.2344-1.8106-2.2988-0.4725-4.5296-1.0617-6.6934-1.7617zm30.971 0c-2.1638 0.7-4.3966 1.2892-6.6953 1.7617 0.535 1.065 1.7826 1.8106 3.2363 1.8106 1.9475 0 3.5215-1.3391 3.5215-2.9941 0-0.1975-0.025-0.39313-0.0625-0.57813zm4.4668 2.1992c-0.007 0.1525-0.28648 5.0781-5.7402 8.0781 0 0-5.4939-0.90055-7.7852-4.873-0.38125 2.2275-1.2578 3.5977-1.2578 3.5977-1.6438-4.5075-5.2949-6.3438-5.2949-6.3438s4.025 7.5371 0 15.85c0 0 4.5584-0.72797 6.4121-2.918 0 0-0.63312-1.4608-2.7344-2.0508 0 0 3.9549-0.81907 6.2949 1.3672 0 0 1.5172-1.5976 1.7109-2.2363 0 0 1.5802 1.2434 1.6602 3.3809 0 0 7.0786-5.478 8.9336-11.404 0 0-0.81172-1.4348-2.1992-2.4473zm-66.555 13.371c-5.2511-0.0257-10.34 1.7166-14.094 6.7988l-0.13476 0.31055s13.172-9.1868 36.475 9.7207c0 0-4.0127-10.415-17.084-16.125 0.03-0.0488 0.06836-0.0972 0.09961-0.14844-1.7431-0.34344-3.5114-0.54809-5.2617-0.55664zm93.205 0c-1.7504 0.009-3.5192 0.2132-5.2617 0.55664 0.0325 0.0513 0.0728 0.0997 0.10157 0.14844-13.074 5.71-17.084 16.125-17.084 16.125 23.299-18.908 36.475-9.7207 36.475-9.7207l-0.13477-0.31055c-3.7538-5.0822-8.8446-6.8245-14.096-6.7988zm-46.729 13.959c-10.244 0-9.7973 1.2606-9.5098 2.7656 0.105 0.58125 0.61078 1.1044 1.6445 1.5469 1.3738-1.225 4.4417-2.0801 8.0117-2.0801 3.4888 0 6.4925 0.81805 7.9062 1.998 0.9225-0.42375 1.3209-0.88359 1.4609-1.4648 0.35625-1.495 0.66508-2.7656-9.5137-2.7656z" transform="matrix(.8 0 0 -.8 75.707 632.49)" fill="#a4a9ac"/><path d="m117.48 44.871c-0.47001 0.81125-0.9375 1.6296-1.4063 2.4434 1.2-0.005 3.1306 0.01992 4.5781 0.04492v7.9609c1.6562 0.02875 3.3045 0.07383 4.957 0.14258v-7.9238c1.51 0.06875 3.4785 0.15281 4.5723 0.22656-0.465-0.845-0.9311-1.6888-1.4024-2.5312-3.7638-0.2275-7.5313-0.34953-11.299-0.36328zm-5.7871 0.04687c-2.3462 0.055-4.6927 0.15406-7.0352 0.28906-1.4938 3.5412-2.9866 7.1486-4.4766 10.715 1.5212-0.12 3.0446-0.22164 4.5684-0.30664 0.2325-0.55625 0.64703-1.487 0.95703-2.207 1.325-0.06125 3.1261-0.13656 4.5586-0.19531 0.31875 0.715 0.73258 1.6404 0.95508 2.1504 1.6488-0.04875 3.2998-0.07984 4.9473-0.08984-1.4913-3.44-2.9834-6.9392-4.4746-10.355zm-11.676 0.59961c-1.545 0.1125-3.0937 0.24453-4.6387 0.39453-0.94375 2.0188-1.8838 4.1301-2.8301 6.1738-0.04 0.20375-0.08445 0.40437-0.12695 0.60937-0.04-0.1925-0.0843-0.38562-0.12305-0.57812-0.89875-1.8038-1.798-3.7334-2.6992-5.5371-1.6538 0.21125-3.3058 0.44828-4.957 0.70703 1.7475 3.1775 3.4996 6.5319 5.2559 9.7344 1.5162-0.2125 3.0313-0.40758 4.5488-0.58008 1.855-3.6712 3.7128-7.3388 5.5703-10.924zm33.184 0.0059c-0.006 3.4575 0 6.9616 0 10.414 3.4625 0.2825 6.9247 0.66336 10.367 1.1309 0.47625-0.77 0.95078-1.5418 1.4258-2.3105-2.055-0.29625-4.823-0.63961-6.9805-0.88086v-1.7734c1.18 0.13125 2.7834 0.31976 3.7871 0.44726v-2.3711c-1.005-0.125-2.611-0.31211-3.791-0.44336-0.002-0.45-0.005-0.97625-0.008-1.4062 2.0312 0.22125 4.5988 0.53242 6.5 0.79492-0.44625-0.8525-0.89148-1.702-1.334-2.5508-3.3162-0.4375-6.638-0.78828-9.9668-1.0508zm-25.23 1.5859c0.0425 0.17125 0.0877 0.34242 0.12891 0.51367 0.35 0.86625 0.90882 2.3198 1.3301 3.3848-0.9175 0.04375-1.9612 0.09367-2.9199 0.13867 0.42375-1.11 0.98985-2.6237 1.3398-3.5137 0.04-0.17375 0.0786-0.34844 0.12109-0.52344zm40.527 0.20508v10.492c3.4425 0.56 6.8693 1.2115 10.279 1.959 0.46625-0.73625 0.94055-1.4713 1.4043-2.2051-1.9275-0.4325-4.7689-1.0212-6.9102-1.4375v-1.7734c1.2212 0.23625 2.8407 0.5607 3.752 0.75195v-2.3652c-0.91125-0.19125-2.5307-0.51766-3.752-0.75391v-1.498c2.03 0.38875 4.6656 0.92195 6.4531 1.3145-0.4425-0.88375-0.88047-1.7665-1.3242-2.6465-3.2912-0.69875-6.5874-1.3116-9.9024-1.8379zm-66.777 0.451c-1.63 0.2825-3.2589 0.58711-4.8789 0.91211v10.545c1.62-0.3425 3.2489-0.65969 4.8789-0.96094v-10.496zm-11.891 2.4277c-3.395 0.81125-6.772 1.7159-10.127 2.7109v10.686c1.5563-0.47875 3.1152-0.93695 4.6777-1.377v-3.1523c0.6375-0.185 1.3437-0.39359 1.6074-0.46484 0.1625 0.0063 0.33109 0.01133 0.49609 0.01758 0.615 0.9425 1.236 1.5891 1.8535 2.5391 1.6975-0.4375 3.3952-0.85203 5.0977-1.2383-0.873-1.204-1.743-2.109-2.616-3.299 0.74875-0.62625 1.4952-1.2495 2.2402-1.8633v-3.3809c-1.075-0.40125-2.1555-0.79344-3.2305-1.1797zm93.83 0.11328v10.617c1.5738 0.39 3.1409 0.80508 4.7109 1.2363v-3.541c0.36875 0.10625 1.2612 0.36328 2.0137 0.58203 0.6025 1.3112 1.3713 3.05 1.8613 4.0938 1.6838 0.5275 3.3607 1.0741 5.0332 1.6504-0.85625-1.6975-1.647-3.5241-2.502-5.1953 0.73375-0.2125 1.4669-0.42281 2.2031-0.63281v-3.1172c-1.0638-0.9825-2.1259-1.956-3.1934-2.916-3.3562-1.015-6.7307-1.9436-10.127-2.7773zm-96.931 3.021c0.3325 0.0125 0.66414 0.02672 0.99414 0.04297 0.165 0.15625 0.33234 0.31516 0.49609 0.47266v0.91406c-0.16375 0.2375-0.33109 0.4768-0.49609 0.7168-0.33 0.1875-0.66164 0.37109-0.99414 0.55859-0.50375 0.13375-1.542 0.41938-2.3457 0.64062v-2.6992c0.90875-0.25375 1.9332-0.54023 2.3457-0.64648zm101.64 0.54492c0.875 0.24875 1.9032 0.54617 2.3457 0.66992 0.3275 0.19375 0.65313 0.38633 0.98438 0.58008 0.1625 0.245 0.32969 0.49078 0.49219 0.73828v0.60156c-0.1625 0.1475-0.32969 0.29852-0.49219 0.44726-0.33125 0.0012-0.65688 0.0055-0.98438 0.01172-0.4425-0.12625-1.4707-0.42312-2.3457-0.67188v-2.377zm-115.16 1.148c-3.6512 1.2912-6.4332 2.2846-9.9082 3.7871v10.928c1.4775-0.66125 3.0428-1.336 4.5703-1.916v-3.3555c1.6925-0.64125 3.3893-1.252 5.0918-1.8457 1.1375-1.0862 2.2728-2.1588 3.4141-3.2188v-3.5391c-1.06-0.2875-2.1167-0.56734-3.168-0.83984zm130.6 1.4824c-1.0512 0.2425-2.1018 0.4932-3.1543 0.75195v2.6445c0.72625 0.6925 1.4605 1.3925 2.1855 2.0938 1.2525 0.6225 2.5057 1.2543 3.752 1.9043 0.2 0.19875 0.39851 0.39891 0.60351 0.59766v1.0312c-0.12 0.095-0.24148 0.19547-0.36523 0.29297-0.23875-0.0275-0.48571-0.05172-0.7207-0.07422-1.9063-0.78-3.8208-1.5311-5.7383-2.2461 0.45625 1.0088 0.91571 2.0195 1.377 3.0332 2.3875 0.9125 4.7705 1.8728 7.1367 2.8828 1.0425-0.1975 2.0744-0.385 3.1094-0.5625v-3.4746c-0.75125-0.78375-1.5147-1.5577-2.2734-2.334-1.2425-0.6675-2.4887-1.3223-3.7324-1.9648-0.1625-0.1575-0.32383-0.31922-0.48633-0.48047v-0.41016c0.12125-0.1025 0.23899-0.20469 0.36524-0.30469 0.24375 0.0225 0.47836 0.0457 0.72461 0.06445 1.7525 0.69875 3.497 1.4219 5.2383 2.1719-0.42625-0.97-0.84438-1.9388-1.2656-2.9062-2.2388-0.9475-4.4909-1.8509-6.7559-2.7109zm-132.66 1.923c0.1625 0.1375 0.32133 0.27727 0.48633 0.41602v0.99414c-0.165 0.25625-0.32383 0.50992-0.48633 0.76367-0.32375 0.2125-0.64641 0.43024-0.97266 0.64648-0.765 0.27875-1.5319 0.56797-2.2969 0.85547v-2.748c0.765-0.29875 1.5319-0.58469 2.2969-0.86719 0.325-0.0225 0.64891-0.04055 0.97266-0.06055zm65.303 6.0547c-2.3325 2.4975-3.8594 6.7007-3.8594 11.471 0 0.81125 0.0459 1.603 0.13086 2.373-1.1862-1.1625-2.9429-1.8594-4.3691-1.8594-2.665 0-5.5319 2.4209-6.1094 5.8184 0.8575-0.5075 1.8429-0.79492 2.9004-0.79492 1.7975 0 3.4045 0.84031 4.4883 2.1641h6.8184v-19.172zm-8.6113 21.172c-1.04 0-1.8808 0.6968-1.8808 1.5605 0 0.8575 0.84085 1.5566 1.8808 1.5566h8.5957 0.0176v-3.1172h-0.0176-8.5957zm2.4043 5.1191c-0.72 1.2812-1.8645 2.2698-3.2383 2.7461 1.0188 0.625 2.127 0.98828 3.252 0.98828 1.04 0 1.9865-0.30711 2.8027-0.84961 0.74 2.3338 1.9226 4.3186 3.3926 5.7461v-8.6309h-6.209zm-14.068 25.408c-2.2862 0.84-7.1809 4.1055 1.6504 15.699l5.1387-1.5606c0.31125-2.0388 1.6602-3.3789 1.6602-3.3789 0.19375 0.63875 1.709 2.2363 1.709 2.2363 2.3425-2.1862 6.2988-1.3691 6.2988-1.3691-2.1 0.59125-2.7363 2.0527-2.7363 2.0527 1.8575 2.1888 6.4082 2.918 6.4082 2.918 4.0262-8.3125 0-15.85 0-15.85s-3.6506 1.8362-5.2969 6.3438c0 0-0.89047-1.3904-1.2617-3.6504-9.3062 4.1088-12.805-1.8077-13.57-3.4414zm40.207 0.28125-0.10742 0.0371c-1.03 1.9638-4.6432 6.9956-13.408 3.123-0.009 0.0175-0.009 0.0306-0.0117 0.0469 2.2888 3.9775 7.7871 4.8789 7.7871 4.8789 5.5412-3.0475 5.7402-8.0859 5.7402-8.0859zm-65.277 5.707c-10.528-0.15123-17.578 5.2809-16.016 12.725 0.12625 0.60125 0.30977 1.2044 0.54102 1.7969 0.0325-0.0175 0.06781-0.0308 0.10156-0.0508l-0.13281 0.31055s13.545-9.1593 36.475 9.7207c0 0-4.5256-10.458-17.391-16.15 1.7612-2.8838 4.301-4.9916 6.8223-6.5078-2.6225-0.89125-5.4088-1.502-8.25-1.7383-0.73125-0.0608-1.4485-0.0954-2.1504-0.10547zm90.65 0c-0.70179 0.0101-1.4192 0.0447-2.1504 0.10547-2.8425 0.23625-5.6275 0.84703-8.25 1.7383 2.52 1.5162 5.0616 3.6241 6.8203 6.5078-12.865 5.6925-17.387 16.15-17.387 16.15 22.925-18.88 36.475-9.7207 36.475-9.7207l-0.13477-0.31055c0.03 0.02 0.0702 0.0333 0.0977 0.0508 0.2325-0.5925 0.41938-1.1956 0.54688-1.7969 1.5598-7.4438-5.4907-12.876-16.018-12.725z" transform="matrix(.8 0 0 -.8 75.707 632.49)" fill="#fff"/><path d="m118.29 0.0058594c-4.614-0.032871-9.2262 0.064297-13.834 0.29492 0-0.0025 1.8574 1.9123 1.8574 6.291v21.59c0 4.4988-1.8574 6.4643-1.8574 6.4668 3.7662-0.2 7.5373-0.31555 11.309-0.3418 0 0-1.9199-2.1766-1.9199-6.3516v-7.3945c0-0.0063 2.772-0.05508 4.0195 6.3887 0.53125 2.7625 1.3379 5.2205 2.5566 7.373 2.7888 0.0375 5.571 0.11945 8.3535 0.25195-1.8025-2.5588-3.1238-6.5011-3.8301-9.9023-0.82625-3.945-2.5586-5.1387-2.5586-5.1387 0-0.0087 3.4759-0.89633 3.4746-4.6738v-7.7227c0-2.4975 0.70312-3.1074 0.70312-3.1074 0-0.00125-1.9782-1.3123-3.6582-3.9473-1.5381-0.039688-3.0772-0.065215-4.6152-0.076172zm11.25 0.36914c0-0.00125 1.8613 2.2526 1.8613 6.4863v21.508c0 4.2475-1.8613 6.2436-1.8613 6.2461 2.9412 0.18875 5.8828 0.43297 8.8203 0.73047v-0.0039c2.3037 0.2375 4.6002 0.51086 6.8965 0.81836 0.47375-2.86 0.94351-5.7167 1.416-8.5742 0 0.0025-1.3906 2.2143-4.7969 1.8105-0.67375-0.08375-2.2952-0.26172-2.9102-0.32422v-21.605c0-3.885 1.9102-6.2024 1.9102-6.2012-3.78-0.38392-7.56-0.67955-11.34-0.8908zm-30.751 0.28906c-4.5788 0.33125-9.1455 0.79227-13.699 1.3848-1.6738 2.8075-3.6328 4.3184-3.6328 4.3184s0.69797 0.54102 0.69922 3.041v20.346c0 2.5012-0.69922 3.2324-0.69922 3.2324s1.9591 0.9582 3.6328 3.3457c4.5538-0.56 9.1205-0.99226 13.699-1.291 1.6787-2.7038 3.6543-4.0338 3.6543-4.0312 0 0-0.70508-0.60367-0.70508-3.1074v-20.477c0-2.5012 0.70508-3.1836 0.70508-3.1836s-1.9743-1.1119-3.6543-3.5781zm48.404 1.334c0-0.0025 1.8516 2.4973 1.8516 6.6211v21.762c0 4.1025-1.8516 6.1246-1.8516 6.1309 3.1175 0.395 6.2299 0.85695 9.3262 1.377 2.4938 0.425 4.9843 0.88828 7.4668 1.3945 0.48625-2.8175 0.97258-5.6388 1.4551-8.4551 0 0.005-1.9696 1.9961-5.3496 1.3711-0.9925-0.1825-2.6085-0.46891-3.5723-0.62891v-8.3398c2.2862 0.385 4.5654 0.80406 6.8379 1.2578v-6.5527c-2.2725-0.4525-4.5516-0.87031-6.8379-1.2578v-6.8711c0.96375 0.15875 2.5798 0.44391 3.5723 0.62891 3.38 0.62625 5.3496 3.4771 5.3496 3.4746-0.4825-3.0512-0.96883-6.1047-1.4551-9.1484-1.4775-0.295-2.9589-0.57289-4.4414-0.83789-4.1025-0.74875-8.2228-1.3908-12.352-1.9258zm-72.461 1.6015c-2.6162 0.46125-5.2256 0.96141-7.8281 1.5039-0.66625 8.1175-1.335 16.236-2 24.357-0.89375-7.7813-1.7859-15.558-2.6797-23.33-3.2462 0.74625-6.4792 1.5621-9.6992 2.4434-0.86 8.2113-1.7187 16.425-2.5762 24.646-0.62625-7.7988-1.2546-15.592-1.8809-23.383-2.8488 0.8375-5.6855 1.7288-8.5117 2.6738 0-0.0012 1.9427 1.1394 2.334 5.6094 0.7575 6.92 1.5173 14.309 2.2773 21.234 0.38375 4.4538-1.2559 6.7599-1.2559 6.7637 0.95875-0.3125 1.9216-0.62102 2.8828-0.91602-0.01-0.05 8.4966-2.539 8.5078-2.4902 0.9275-8.9162 1.8538-18.203 2.7812-27.1 0.93125 8.4288 1.8591 17.22 2.7891 25.656 2.9662-0.735 5.9415-1.408 8.9277-2.0293 0-0.0038 2.4141-0.49078 2.4141-0.48828 0-0.0025-1.6832-1.4479-1.2832-6.1191-0.0025 0.0012-0.0066 0.0034-0.0078 0.0059 0.79875-7.3275 1.6011-14.917 2.4023-22.23h0.0078c0.40125-4.6662 2.3984-6.8098 2.3984-6.8086zm96.064 2.6484s1.5375 2.145 0.8125 6.5625c0 0-0.00039 0.0039 0.006 0.0039-1.0662 7.5175-2.1324 15.33-3.2012 22.861-0.58625 3.1062-1.998 4.1094-1.998 4.1094 2.7738 0.6 5.5355 1.2505 8.293 1.9492 0.23375-2.2162 0.46773-4.7479 0.70898-6.9629 1.5612 0.395 3.1218 0.80758 4.6856 1.2363 0.2425 2.3438 0.48601 5.0204 0.72851 7.3691 2.96 0.83375 5.9068 1.7233 8.8418 2.6758 0-0.0038-1.6708-2.2501-2.3008-5.7051-1.2912-10.159-2.5892-20.661-3.8867-30.795-4.2088-1.2175-8.442-2.3197-12.689-3.3047zm-54.047 0.1875c1.0762 0.0025 1.9531 1.0308 1.9531 2.3008v4.1895c0 1.2638-0.87688 2.2773-1.9531 2.2773-0.9675-0.0038-1.9323-0.0015-2.9023 0.0098v-8.7637c0.97-0.01125 1.9348-0.016172 2.9023-0.013672zm-24.209 1.168c1.0738-0.105 1.9434 0.83867 1.9434 2.1074v17.061c0 1.2662-0.86961 2.3583-1.9434 2.457-0.38875 0.03625-0.78047 0.07117-1.168 0.10742-1.0762 0.105-1.9473-0.82359-1.9473-2.0898v-17.023c0-1.2675 0.87102-2.3862 1.9473-2.5 0.3875-0.04 0.77922-0.081641 1.168-0.11914zm97.645 3.998s1.7928 2.364 1.7891 6.959v21.992c0.004 4.5925-1.7891 5.7761-1.7891 5.7773 3.4112 1.1288 6.803 2.3373 10.168 3.6211 0.005-0.0025-1.7754-2.4517-1.7754-7.043v-11.752c1.1975 4.1712 2.3927 8.9401 3.584 13.143 1.9988 6.7588 5.9355 8.8062 8.2305 9.8125v-34.996c-2.7488-1.1625-5.5068-2.2724-8.2793-3.3262 0.002-0.0025 1.7695 2.4615 1.7695 7.0527v11.197c-0.0288-0.19-0.0545-0.38226-0.082-0.57226-1.8788-6.4075-3.7604-12.79-5.6504-19.148-2.6412-0.9525-5.2961-1.8593-7.9648-2.7168zm-12.348 1.3848c0.54501 5.415 1.0956 10.828 1.6406 16.244-1.1275-0.30375-2.2562-0.60062-3.3887-0.89062 0.585-5.12 1.1656-10.239 1.748-15.354zm-139.86 0.06445c-1.4362 0.4975-2.8674 1.0095-4.2949 1.5332-3.8925 1.415-7.7586 2.9355-11.59 4.5605-0.0012-0.0012 1.75 1.2256 1.75 5.6406v22.188c0 4.3925-1.7512 7.1264-1.75 7.1289 2.7512-1.2037 5.5229-2.3489 8.3066-3.4414 2.5138-0.98375 5.0419-1.9209 7.5781-2.8184 0.475-3.0825 0.94812-6.1655 1.4219-9.248 0 0.005-1.9296 3.0767-5.1934 4.293-0.96 0.35625-2.2618 0.85148-3.1855 1.209v-8.3066c1.7562-0.665 3.5202-1.3052 5.2852-1.9277v-6.9316c-1.765 0.6225-3.5289 1.264-5.2852 1.9277v-6.875c0.92375-0.3525 2.2255-0.83344 3.1855-1.1797 3.2638-1.1762 5.1934 0.61508 5.1934 0.61133-0.47375-2.79-0.94688-5.577-1.4219-8.3633zm-18.426 7.1875c-2.7325 1.1975-5.4477 2.4436-8.1465 3.7461-0.0025 0 1.7221 0.96023 1.7246 5.5527v11.195c-0.02625-0.16625-0.05328-0.33516-0.08203-0.50391-1.831-4.808-3.6566-9.591-5.4716-14.351-2.5413 1.281-5.0634 2.61-7.5684 3.986 0 0 1.6855 0.86258 1.6855 5.4551v22.52c0 4.59-1.6868 7.3114-1.6855 7.3164 3.2012-1.8 6.4327-3.5223 9.6914-5.166 0 0-1.709-0.91195-1.709-5.502v-12.137c1.1488 3.1588 2.3047 7.2548 3.4609 10.416 1.9412 5.02 5.8116 3.6228 8.1016 2.6016v-35.129zm197.83 1.9883c-1.56 1.865-3.4043 2.2754-3.4043 2.2754s0.65039 0.93414 0.65039 3.4316c0.0225 3.1162 0.0372 6.8056 0.0547 9.9219-0.002 2.355 1.5185 4.9361 3.3848 5.8086 1.9462 0.9025 3.8783 1.8316 5.8008 2.7891 0.67375 0.33625 1.2188 1.306 1.2188 2.166v4.6211c0 0.8625-0.5475 1.2666-1.2188 0.91406-0.38-0.2025-0.75547-0.40297-1.1367-0.60547-0.67625-0.34875-1.2266-1.3184-1.2266-2.1797v-2.6035c-2.275-1.1038-4.5694-2.1717-6.877-3.1992v3.3926c0 2.5-0.65039 2.832-0.65039 2.832s1.8443 2.0909 3.4043 5.4434c3.9862 1.9362 7.9393 3.9847 11.842 6.1484 1.535-1.745 3.3203-1.9512 3.3203-1.9512s-0.63476-0.99891-0.63476-3.5039v-3.1406-7.5078c0-2.3538-1.4741-5.0688-3.3066-6.0312-1.9012-0.99625-3.8057-1.9678-5.7207-2.9141-0.67375-0.33125-1.2226-1.2265-1.2226-2.084v-4.0879c0-0.86 0.5489-1.2895 1.2226-0.95703 0.2975 0.14625 0.58852 0.29375 0.88477 0.4375 0.67375 0.33625 1.2168 1.3028 1.2168 2.1641v1.9004c2.3238 1.1712 4.6358 2.386 6.9258 3.6348v-2.8516c0-2.4988 0.63476-2.791 0.63476-2.791s-1.7853-2.2099-3.3203-5.6074c-3.9025-2.07-7.8556-4.0252-11.842-5.8652zm-112.16 42.825c-5.9913 2.7475-11.763 8.215-20.035 17.5-12.09 13.566-28.186 12.67-28.186 12.67s5.2109 6.0296 26.273 12.225c0 0-6.1477-4.0097-10.49-9.2109 5.695-2.1938 13.943-6.5932 20.561-17.127 3.3312-5.31 7.532-12.943 11.877-16.057zm43.291 18.02c3.2788 8.4963 9.4464 13.446 12.973 15.707-4.1562 4.0462-11.305 8.666-11.305 8.666 16.221-4.73 25.674-11.826 25.674-11.826-18.246-1.6888-27.342-12.547-27.342-12.547zm-51.543 21.053 5.2266 4.0879-12.492 1.0293c8.4688 1.8688 17.55 2.8848 26.996 2.8848 9.3662 0 18.375-0.99664 26.785-2.8379l-13.076-1.0762 5.0312-3.9316c-6.0262 0.89-12.294 1.3613-18.74 1.3613-6.7975 0-13.403-0.52757-19.73-1.5176zm9.2754 30.174s-7.8447 2.9151-16.836 1.3613c0 0 0.08352 0.0994 0.19726 0.29688 3.3125 5.7738 11.505 5.4284 15.75 4.2734 5.475-1.4975 10.945 0 10.945 0s5.4724-1.4975 10.951 0c4.2412 1.155 12.434 1.5003 15.746-4.2734 0.115-0.1975 0.20313-0.29688 0.20313-0.29688-8.995 1.5538-16.838-1.3613-16.838-1.3613s-5.4575 3.2812-10.062 3.2812c-4.6038 0-10.057-3.2812-10.057-3.2812zm-3.791 10.691c-5.09 5.4625-5.3647 13.491-5.2109 16.936 0.045 0.30125 0.08211 0.59679 0.13086 0.90429 0 0 1.8676-4.2555 6.2676-8.1543 0 0-2.7838 9.578 1.9688 19.936 0.11125 0.2625 0.23242 0.52515 0.35742 0.78515 0.39625-6.1038 3.2402-9.9316 3.2402-9.9316-0.99375 11.028 4.5568 16.506 7.2168 19.635 2.6675-3.1288 8.217-8.6073 7.2207-19.635 0 0 2.5297 3.406 3.1484 8.916 3.3225-11.72 0.81297-18.24-0.95703-21.066-0.55875-0.635-1.1016-1.1317-1.3516-1.4805-2.4325-1.1938-5.0996-1.7031-8.0371-1.7031-2.9512 0-5.2567 0.19101-8.0742 1.6973-0.43625 0.61-0.79703 2.4264-1.5508 3.9414-3.4038-4.335-4.5754-7.998-4.3691-10.779z" transform="matrix(.8 0 0 -.8 75.707 632.49)" fill="#005ca6"/></g></g></svg>
